<svg xmlns="http://www.w3.org/2000/svg" width="16.558" height="18.923" viewBox="0 0 16.558 18.923">
  <path id="Icon_awesome-address-book" data-name="Icon awesome-address-book" d="M16.114,5.913a.445.445,0,0,0,.444-.444V3.992a.445.445,0,0,0-.444-.444h-.739V1.774A1.774,1.774,0,0,0,13.6,0H1.774A1.774,1.774,0,0,0,0,1.774V17.149a1.774,1.774,0,0,0,1.774,1.774H13.6a1.774,1.774,0,0,0,1.774-1.774V15.375h.739a.445.445,0,0,0,.444-.444V13.453a.445.445,0,0,0-.444-.444h-.739V10.644h.739a.445.445,0,0,0,.444-.444V8.722a.445.445,0,0,0-.444-.444h-.739V5.913ZM7.688,4.731A2.365,2.365,0,1,1,5.322,7.1,2.368,2.368,0,0,1,7.688,4.731Zm4.139,8.752a.775.775,0,0,1-.828.71H4.376a.775.775,0,0,1-.828-.71v-.71a2.327,2.327,0,0,1,2.484-2.129h.185a3.807,3.807,0,0,0,2.942,0h.185a2.327,2.327,0,0,1,2.484,2.129Z"/>
</svg>
