<svg xmlns="http://www.w3.org/2000/svg" width="29.12" height="29.12" viewBox="0 0 29.12 29.12">
  <path id="Icon_awesome-save" data-name="Icon awesome-save" d="M28.206,8.616,22.754,3.164a3.12,3.12,0,0,0-2.206-.914H3.12A3.12,3.12,0,0,0,0,5.37V28.25a3.12,3.12,0,0,0,3.12,3.12H26a3.12,3.12,0,0,0,3.12-3.12V10.822a3.12,3.12,0,0,0-.914-2.206ZM14.56,27.21a4.16,4.16,0,1,1,4.16-4.16A4.16,4.16,0,0,1,14.56,27.21ZM20.8,7.416V13.95a.78.78,0,0,1-.78.78H4.94a.78.78,0,0,1-.78-.78V7.19a.78.78,0,0,1,.78-.78H19.794a.78.78,0,0,1,.552.228l.226.226a.78.78,0,0,1,.228.552Z" transform="translate(0 -2.25)"/>
</svg>
