<svg xmlns="http://www.w3.org/2000/svg" width="19.844" height="26.459" viewBox="0 0 19.844 26.459">
  <path id="Icon_awesome-transgender" data-name="Icon awesome-transgender" d="M19.224,0H15.142A.621.621,0,0,0,14.7,1.059l.873.873L11.405,6.1A7.442,7.442,0,1,0,5.788,19.658v1.426H3.928a.622.622,0,0,0-.62.62v2.067a.622.622,0,0,0,.62.62h1.86v1.447a.622.622,0,0,0,.62.62H8.475a.622.622,0,0,0,.62-.62V24.392h1.86a.622.622,0,0,0,.62-.62V21.7a.622.622,0,0,0-.62-.62H9.1V19.658A7.444,7.444,0,0,0,13.741,8.439l4.17-4.17.873.873A.62.62,0,0,0,19.844,4.7V.62a.622.622,0,0,0-.62-.62ZM7.442,16.537A4.134,4.134,0,1,1,11.576,12.4,4.14,4.14,0,0,1,7.442,16.537Z"/>
</svg>
