<svg xmlns="http://www.w3.org/2000/svg" width="30.565" height="27.179" viewBox="0 0 30.565 27.179">
  <path id="Path_39" data-name="Path 39" d="M99.108,56a1.019,1.019,0,0,0,0,2.039h3.249l3.5,16.53c.139.622.546,1.14,1.062,1.136h16.987a1.019,1.019,0,1,0,0-2.039H107.75l-.435-2.039h17.953a1.051,1.051,0,0,0,.987-.8l2.378-10.192a1.067,1.067,0,0,0-.987-1.242H104.735l-.552-2.59a1.052,1.052,0,0,0-1-.807Zm6.052,5.436h21.2l-1.9,8.154h-17.57Zm5.16,14.948a3.4,3.4,0,1,0,3.4,3.4A3.413,3.413,0,0,0,110.32,76.384Zm10.192,0a3.4,3.4,0,1,0,3.4,3.4,3.413,3.413,0,0,0-3.4-3.4ZM110.32,78.423a1.359,1.359,0,1,1-1.359,1.359A1.344,1.344,0,0,1,110.32,78.423Zm10.192,0a1.359,1.359,0,1,1-1.359,1.359A1.344,1.344,0,0,1,120.512,78.423Z" transform="translate(-98.089 -56)" fill="#fff"/>
</svg>
