<svg xmlns="http://www.w3.org/2000/svg" width="29" height="29.001" viewBox="0 0 29 29.001">
  <path id="Union_1" data-name="Union 1" d="M-1333,6347v-10.688h3.509l.527-3.938H-1333v-2.51c0-1.18.323-1.983,2.018-1.983h2.482v-3.642c-.373-.049-1.975-.163-3.466-.163-3.116,0-5.534,1.9-5.534,5.387v2.91h-3.227v3.938h3.227V6347h-12.009a1.492,1.492,0,0,1-1.491-1.491v-24.019a1.492,1.492,0,0,1,1.491-1.491h24.018a1.492,1.492,0,0,1,1.491,1.491v24.019a1.492,1.492,0,0,1-1.491,1.491Zm-8.5,0h0Z" transform="translate(1352 -6319)" fill="none" stroke="#333131" stroke-width="2"/>
</svg>
