<svg id="Layer_1" data-name="Layer 1" xmlns="http://www.w3.org/2000/svg" viewBox="0 0 2000 2000"><defs><style>.cls-1,.cls-2{fill:#005baa;}.cls-2{fill-rule:evenodd;}</style></defs><path class="cls-1" d="M133.42,994c12.44-4.78,22.63-19.2,22.63-38.21C156.05,923,131.7,906,90.68,906H10.21v190.22H104c38.21,0,61.15-24.35,61.15-57.17,0-19-9.38-39.65-31.71-45Zm-96-60.83H94.91c21.5,0,34,7.63,34,23.8,0,16.39-12.49,23.73-34,23.73H37.37V933.2Zm0,74.74H99.44c23.49,0,38.48,9.64,38.48,30.58s-15,30.57-38.48,30.57H37.37v-61.15Zm0,61.15h0Z"/><path class="cls-1" d="M237.81,933.2h99.51V906H210.65v190.22H337.32v-27.16l-99.51-.09V933.2Zm75.67,81.53V987.92H243.93v26.81Z"/><polygon class="cls-1" points="480.46 901.5 389.86 1096.25 419.31 1096.25 437.71 1055.49 437.81 1055.49 480.46 961.53 523.11 1055.49 523.21 1055.49 541.61 1096.25 571.06 1096.25 480.46 901.5 480.46 901.5"/><path class="cls-1" d="M742.85,906V1021.5c0,29.46-17,49.83-45.3,49.83-28.59,0-45.3-20.37-45.3-49.83V906H625.09v106.44c0,50.09,21.5,86,72.46,86,49.83,0,72.45-35.93,72.45-86V906Z"/><path class="cls-1" d="M959.32,932.73V906H832.49v26.7Zm-49.83,163.52V927.16H882.33v169.09Z"/><path class="cls-1" d="M1039.54,933.2H1139V906H1012.37v190.22H1139v-27.16l-99.5-.09V933.2Zm75.66,81.53V987.92h-69.54v26.81Z"/><polygon class="cls-2" points="1352.66 905.94 1375.1 905.94 1453.66 1041.85 1453.66 905.94 1478.38 905.94 1478.38 1096.4 1456.87 1096.4 1377.27 958.83 1377.27 1096.4 1352.66 1096.4 1352.66 905.94"/><rect class="cls-1" x="1264.85" y="905.94" width="25.26" height="190.46"/><rect class="cls-1" x="1722.47" y="905.94" width="25.26" height="190.46"/><polygon class="cls-1" points="1899.55 904.19 1809.32 1098.15 1838.65 1098.15 1856.97 1057.56 1857.07 1057.56 1899.55 963.97 1942.04 1057.56 1942.12 1057.56 1960.45 1098.15 1989.79 1098.15 1899.55 904.19 1899.55 904.19"/><path class="cls-1" d="M1558.49,905.4q46.69.24,72.79,26.46,28.6,28.85,28.62,69.31t-28.62,69.31q-26.1,26.24-72.79,26.46H1540.3V905.4Zm6.6,25.26V1071.8q29.55,0,48.48-19,21.3-21.3,21.3-51.59t-21.3-51.59Q1594.66,930.65,1565.09,930.66Z"/></svg>