<svg xmlns="http://www.w3.org/2000/svg" width="21.343" height="27.989" viewBox="0 0 21.343 27.989">
  <path id="Icon_map-city-hall" data-name="Icon map-city-hall" d="M5.336,12.849H7.369V25.91h3.049v-11.2h3.049v11.2h3.049v-11.2h3.05v11.2h3.049V12.849h2.032a.978.978,0,0,0,1.017-.933.907.907,0,0,0-.424-.755l0,0-.015-.009-.026-.016-9.7-5.02V4.644c1.791.823,3.266-.595,5.589.258V1.654C18.764.8,17.29,2.218,15.5,1.4V1.186a.509.509,0,0,0-1.015,0V6.115l-9.7,5.019-.026.016-.015.01v0a.909.909,0,0,0-.422.755.977.977,0,0,0,1.016.933Zm1.016,14L4.32,28.709H25.663L23.63,26.844Z" transform="translate(-4.32 -0.72)"/>
</svg>
