<svg id="Icon_ionic-ios-mail" data-name="Icon ionic-ios-mail" xmlns="http://www.w3.org/2000/svg" width="22.424" height="15.525" viewBox="0 0 22.424 15.525">
  <path id="Path_13470" data-name="Path 13470" d="M25.616,10.347l-5.8,5.908a.1.1,0,0,0,0,.151l4.059,4.323a.7.7,0,0,1,0,.992.7.7,0,0,1-.992,0L18.84,17.414a.111.111,0,0,0-.156,0l-.986,1a4.34,4.34,0,0,1-3.094,1.3,4.427,4.427,0,0,1-3.159-1.342l-.949-.965a.111.111,0,0,0-.156,0L6.3,21.721a.7.7,0,0,1-.992,0,.7.7,0,0,1,0-.992l4.059-4.323a.115.115,0,0,0,0-.151L3.558,10.347a.106.106,0,0,0-.183.075V22.244A1.73,1.73,0,0,0,5.1,23.969H24.074A1.73,1.73,0,0,0,25.8,22.244V10.422A.108.108,0,0,0,25.616,10.347Z" transform="translate(-3.375 -8.444)"/>
  <path id="Path_13471" data-name="Path 13471" d="M14.786,17.745a2.931,2.931,0,0,0,2.108-.884l8.458-8.609a1.694,1.694,0,0,0-1.067-.377H5.293a1.683,1.683,0,0,0-1.067.377l8.458,8.609A2.931,2.931,0,0,0,14.786,17.745Z" transform="translate(-3.574 -7.875)"/>
</svg>
